/* XPM */
static char * email_open_image_xpm[] = {
"16 16 171 2",
"  	c None",
". 	c #A0BFE9",
"+ 	c #A3C0EA",
"@ 	c #89ABDD",
"# 	c #ABC4E9",
"$ 	c #E0E9F8",
"% 	c #E6EEF9",
"& 	c #B5CBEC",
"* 	c #8AABDE",
"= 	c #82A6DB",
"- 	c #B6CBEA",
"; 	c #F2F7FE",
"> 	c #F9FCFF",
", 	c #FBFCFF",
"' 	c #F8FBFE",
") 	c #C4D5EE",
"! 	c #81A4DB",
"~ 	c #96B5E3",
"{ 	c #CDDCF3",
"] 	c #F3F7FE",
"^ 	c #F3F8FF",
"/ 	c #E6F0FC",
"( 	c #F5F9FE",
"_ 	c #F9FBFE",
": 	c #DAE6F6",
"< 	c #96B6E5",
"[ 	c #A3BFE7",
"} 	c #7FA0C8",
"| 	c #7E9FC7",
"1 	c #7B9DC6",
"2 	c #789AC3",
"3 	c #7496C0",
"4 	c #6F92BC",
"5 	c #6A8EB9",
"6 	c #6B8EB8",
"7 	c #658AB4",
"8 	c #6388B3",
"9 	c #A6C2E9",
"0 	c #7EA6E0",
"a 	c #96B4E3",
"b 	c #B5CBED",
"c 	c #E7F0FC",
"d 	c #7A9CC5",
"e 	c #DCDEDE",
"f 	c #F2F3F3",
"g 	c #F3F4F7",
"h 	c #F2F4F7",
"i 	c #EDF2F8",
"j 	c #EBF2F8",
"k 	c #EBF2F7",
"l 	c #E8EEF1",
"m 	c #6287B2",
"n 	c #BACFEF",
"o 	c #84A9E1",
"p 	c #91ABD7",
"q 	c #F8FAFD",
"r 	c #F1F5FC",
"s 	c #7597C1",
"t 	c #F1F2F3",
"u 	c #DD7E89",
"v 	c #E58691",
"w 	c #E68995",
"x 	c #E28D98",
"y 	c #EAF1F7",
"z 	c #6286B2",
"A 	c #F3F6FB",
"B 	c #B1C5E3",
"C 	c #4377AB",
"D 	c #7B9DD3",
"E 	c #F2F6FB",
"F 	c #769CD4",
"G 	c #7194BD",
"H 	c #DE8A96",
"I 	c #FFB7C4",
"J 	c #FFBDC7",
"K 	c #FFC1CA",
"L 	c #FFC5CC",
"M 	c #E58F9A",
"N 	c #E8EFF7",
"O 	c #517FC2",
"P 	c #6A95D3",
"Q 	c #D9E4F1",
"R 	c #508CC8",
"S 	c #7096D0",
"T 	c #F9FBFD",
"U 	c #B1CDF1",
"V 	c #6186B0",
"W 	c #F1F4F7",
"X 	c #FFC6CF",
"Y 	c #FFC6CE",
"Z 	c #E7EFF6",
"` 	c #5B83B7",
" .	c #95BCF0",
"..	c #ECF4F8",
"+.	c #668ECC",
"@.	c #D3E5FD",
"#.	c #B2CCF1",
"$.	c #7493B6",
"%.	c #8EA9C9",
"&.	c #9EC1F0",
"*.	c #B7D7FC",
"=.	c #EDF3F8",
"-.	c #5B86C9",
";.	c #D7E8FD",
">.	c #D4E6FD",
",.	c #B9CFEC",
"'.	c #6B90BF",
").	c #6E92C0",
"!.	c #6A8FBF",
"~.	c #C9DEF7",
"{.	c #C0DBFC",
"].	c #507DC5",
"^.	c #D8E9FD",
"/.	c #D0E1F9",
"(.	c #B3CAEB",
"_.	c #D0E1F8",
":.	c #A9C5EA",
"<.	c #C2DAF8",
"[.	c #C6DFFC",
"}.	c #508DC8",
"|.	c #4676C2",
"1.	c #F8FBFD",
"2.	c #D2E3F9",
"3.	c #D6E7FD",
"4.	c #B0CAEB",
"5.	c #C4DBF8",
"6.	c #ECF2F8",
"7.	c #508CC9",
"8.	c #3C6FBE",
"9.	c #F5F9FC",
"0.	c #BCD0EC",
"a.	c #D6E4F9",
"b.	c #DFECFE",
"c.	c #DFEBFE",
"d.	c #DEEBFE",
"e.	c #DBEBFE",
"f.	c #DCEBFE",
"g.	c #DDEAFE",
"h.	c #DBEAFD",
"i.	c #D8E8FD",
"j.	c #CDE0F8",
"k.	c #B3CBEA",
"l.	c #E3EBF3",
"m.	c #508BC7",
"n.	c #315DA3",
"o.	c #EEF3F8",
"p.	c #E4ECF5",
"q.	c #F0F5FB",
"r.	c #F1F7FB",
"s.	c #F3F7FB",
"t.	c #F4F8FB",
"u.	c #F6F9FC",
"v.	c #F7F9FC",
"w.	c #F7FAFC",
"x.	c #ECF1F7",
"y.	c #CCD9EA",
"z.	c #4276AB",
"A.	c #2B518E",
"B.	c #3163B0",
"C.	c #3870BB",
"D.	c #3C77BE",
"E.	c #407BC1",
"F.	c #427EC2",
"G.	c #4580C2",
"H.	c #4782C3",
"I.	c #4986C3",
"J.	c #4A86C3",
"K.	c #4B87C3",
"L.	c #4C87C3",
"M.	c #4983BD",
"N.	c #4074AC",
"              . +               ",
"          @ # $ % & *           ",
"        = - ; > , ' ) !         ",
"      ~ { ] ^ / / ( _ : <       ",
"    [ } | 1 2 3 4 5 6 7 8 9 0   ",
"a b c d e f g h i j k l m ; n o ",
"p q r s t u v v v w x y z A B C ",
"D E F G g H I J K L M N O P Q R ",
"S T U V W M X Y Y Y M Z `  ...R ",
"+.T @.#.$.M X X X X M %.&.*.=.R ",
"-.T ;.>.,.'.).).).).!.~.{.{.=.R ",
"].T ^./.(._.>.>.>.>._.:.<.[.=.}.",
"|.1.2.,._.3.>.>.>.>.>.~.4.5.6.7.",
"8.9.0.a.b.c.d.e.f.g.h.i.j.k.l.m.",
"n.o.p.q.r.s.t.9.9.u.v.w.w.x.y.z.",
"A.B.C.D.E.F.G.H.I.J.K.K.L.M.N.A."};
